<svg width="24" height="24" viewBox="0 0 24 24" fill="none" xmlns="http://www.w3.org/2000/svg">
<path d="M7.72073 12L1 16.3912V7.60885L7.72073 12ZM16.2793 12L23 16.3912V7.60885L16.2793 12ZM15.2973 12.6435L12.2924 14.6062C12.2039 14.6627 12.102 14.6923 12 14.6923C11.898 14.6923 11.7961 14.6627 11.7076 14.6062L8.70268 12.6435L1.44537 17.3846L1.02415 17.6592C1.15561 18.4185 1.81561 19 2.60976 19H21.3902C22.1844 19 22.8444 18.4212 22.9759 17.6592L22.552 17.3846L15.2973 12.6435ZM12 13.5104L22.552 6.61538L22.9759 6.34077C22.8444 5.57885 22.1844 5 21.3902 5H2.60976C1.81561 5 1.15561 5.58154 1.02415 6.34077L1.44537 6.61538L12 13.5104Z" fill="black"/>
</svg>
