<svg width="38" height="30" viewBox="0 0 38 30" fill="none" xmlns="http://www.w3.org/2000/svg">
<path d="M37.4233 3.55126C36.0344 4.15703 34.5655 4.55963 33.0617 4.74665C34.6464 3.80655 35.8312 2.31793 36.3918 0.562774C34.908 1.44279 33.2845 2.0625 31.5917 2.39509C30.5538 1.28689 29.2066 0.516433 27.7252 0.183836C26.2437 -0.148761 24.6964 -0.0281287 23.2844 0.53006C21.8724 1.08825 20.6609 2.05819 19.8073 3.31388C18.9536 4.56956 18.4974 6.05293 18.4978 7.57128C18.4978 8.17129 18.5486 8.74821 18.6732 9.29745C15.6618 9.14981 12.7155 8.36824 10.0269 7.00386C7.3383 5.63947 4.96794 3.72299 3.07079 1.3797C2.09882 3.04554 1.79834 5.01921 2.23051 6.89882C2.66269 8.77844 3.79502 10.4227 5.39696 11.4967C4.1987 11.4646 3.02573 11.1448 1.97693 10.5644V10.6475C1.97894 12.3954 2.58309 14.0893 3.68768 15.4439C4.79226 16.7986 6.32984 17.7314 8.04159 18.0852C7.39401 18.2559 6.72662 18.3397 6.05696 18.3344C5.57601 18.343 5.09554 18.2997 4.62387 18.2052C5.11297 19.7076 6.05578 21.0214 7.32249 21.9657C8.5892 22.9101 10.1175 23.4385 11.697 23.4783C9.01761 25.5738 5.71305 26.7105 2.31155 26.7068C1.69078 26.7068 1.09539 26.6791 0.5 26.6029C3.96129 28.8334 7.99469 30.0133 12.1124 29.9999C26.0417 29.9999 33.6571 18.4614 33.6571 8.45975C33.6571 8.12513 33.6456 7.80205 33.6294 7.48128C35.1224 6.41278 36.4081 5.08099 37.4233 3.55126Z" fill="#03A9F4"/>
</svg>
