<svg width="26" height="27" viewBox="0 0 26 27" fill="none" xmlns="http://www.w3.org/2000/svg">
<mask id="mask0_5_184" style="mask-type:luminance" maskUnits="userSpaceOnUse" x="0" y="0" width="25" height="25">
<path fill-rule="evenodd" clip-rule="evenodd" d="M0 0H24.7362V24.7365H0V0Z" fill="white"/>
</mask>
<g mask="url(#mask0_5_184)">
<path fill-rule="evenodd" clip-rule="evenodd" d="M12.3701 1.90527C6.6003 1.90527 1.90625 6.59805 1.90625 12.3678C1.90625 18.1376 6.6003 22.8316 12.3701 22.8316C18.1386 22.8316 22.8326 18.1376 22.8326 12.3678C22.8326 6.59805 18.1386 1.90527 12.3701 1.90527ZM12.3689 24.7365C5.54879 24.7365 0 19.1877 0 12.3676C0 5.54751 5.54879 0 12.3689 0C19.189 0 24.7365 5.54751 24.7365 12.3676C24.7365 19.1877 19.189 24.7365 12.3689 24.7365Z" fill="white"/>
</g>
<mask id="mask1_5_184" style="mask-type:luminance" maskUnits="userSpaceOnUse" x="19" y="19" width="7" height="8">
<path fill-rule="evenodd" clip-rule="evenodd" d="M19.3555 19.9482H25.7362V26.3172H19.3555V19.9482Z" fill="white"/>
</mask>
<g mask="url(#mask1_5_184)">
<path fill-rule="evenodd" clip-rule="evenodd" d="M24.7839 26.3172C24.5413 26.3172 24.2975 26.2244 24.1108 26.039L19.6352 21.5761C19.2631 21.204 19.2618 20.6007 19.6339 20.2286C20.0048 19.8539 20.608 19.8565 20.9814 20.2261L25.457 24.6902C25.8292 25.0624 25.8304 25.6644 25.4583 26.0365C25.2729 26.2244 25.0278 26.3172 24.7839 26.3172Z" fill="white"/>
</g>
</svg>
