<svg width="30" height="30" viewBox="0 0 30 30" fill="none" xmlns="http://www.w3.org/2000/svg">
<path d="M15.0875 27.475C13.325 27.475 11.55 26.8 10.2125 25.4625L4.55 19.8C3.175 18.425 2.45 16.525 2.5375 14.5875L2.8375 8.33748C2.975 5.34998 5.3375 2.98748 8.3375 2.83748L14.5875 2.53748C16.525 2.46248 18.425 3.17498 19.8 4.54998L25.4625 10.2125C28.15 12.9 28.15 17.2875 25.4625 19.975L19.975 25.4625C18.625 26.8 16.8625 27.475 15.0875 27.475ZM5.875 18.4625L11.5375 24.125C12.4875 25.075 13.75 25.6 15.0875 25.6C16.425 25.6 17.6875 25.075 18.6375 24.125L24.125 18.6375C25.075 17.6875 25.6 16.425 25.6 15.0875C25.6 13.75 25.075 12.4875 24.125 11.5375L18.4625 5.87497C17.4625 4.87497 16.075 4.33748 14.675 4.41248L8.425 4.71248C6.3875 4.79998 4.8 6.38748 4.7 8.41248L4.4 14.6625C4.3375 16.075 4.875 17.4625 5.875 18.4625Z" fill="#A7A7A7"/>
<path d="M11.875 15.9375C9.6375 15.9375 7.8125 14.1125 7.8125 11.875C7.8125 9.6375 9.6375 7.8125 11.875 7.8125C14.1125 7.8125 15.9375 9.6375 15.9375 11.875C15.9375 14.1125 14.1125 15.9375 11.875 15.9375ZM11.875 9.6875C10.675 9.6875 9.6875 10.675 9.6875 11.875C9.6875 13.075 10.675 14.0625 11.875 14.0625C13.075 14.0625 14.0625 13.075 14.0625 11.875C14.0625 10.675 13.075 9.6875 11.875 9.6875Z" fill="#A7A7A7"/>
</svg>
