<svg width="30" height="30" viewBox="0 0 30 30" fill="none" xmlns="http://www.w3.org/2000/svg">
<path d="M14.9997 28.4375C13.5372 28.4375 12.1747 27.875 11.1497 26.85L3.16219 18.8625C2.13719 17.8375 1.57471 16.4625 1.57471 15.0125C1.57471 13.5625 2.13719 12.1875 3.16219 11.1625L11.1497 3.17497C12.1747 2.14997 13.5497 1.58752 14.9997 1.58752C16.4497 1.58752 17.8247 2.14997 18.8497 3.17497L26.8372 11.1625C27.8622 12.1875 28.4247 13.5625 28.4247 15.0125C28.4247 16.4625 27.8622 17.8375 26.8372 18.8625L18.8497 26.85C17.8247 27.875 16.4622 28.4375 14.9997 28.4375ZM14.9997 3.4375C14.0372 3.4375 13.1372 3.81252 12.4747 4.47502L4.48719 12.4625C3.81219 13.1375 3.44971 14.0375 3.44971 14.9875C3.44971 15.9375 3.82469 16.85 4.48719 17.5125L12.4747 25.5C13.8122 26.8375 16.1872 26.8375 17.5247 25.5L25.5122 17.5125C26.1872 16.8375 26.5497 15.95 26.5497 14.9875C26.5497 14.025 26.1747 13.125 25.5122 12.4625L17.5247 4.47502C16.8622 3.81252 15.9622 3.4375 14.9997 3.4375Z" fill="#A7A7A7"/>
<path d="M22.1874 23.125C21.9499 23.125 21.7124 23.0375 21.5249 22.85L7.14993 8.475C6.78743 8.1125 6.78743 7.51243 7.14993 7.14993C7.51243 6.78743 8.11242 6.78743 8.47492 7.14993L22.8499 21.5249C23.2124 21.8874 23.2124 22.4875 22.8499 22.85C22.6624 23.0375 22.4249 23.125 22.1874 23.125Z" fill="#A7A7A7"/>
<path d="M7.81243 23.125C7.57493 23.125 7.33743 23.0375 7.14993 22.85C6.78743 22.4875 6.78743 21.8874 7.14993 21.5249L21.5249 7.14993C21.8874 6.78743 22.4874 6.78743 22.8499 7.14993C23.2124 7.51243 23.2124 8.1125 22.8499 8.475L8.47492 22.85C8.28742 23.0375 8.04993 23.125 7.81243 23.125Z" fill="#A7A7A7"/>
</svg>
