<svg width="24" height="24" viewBox="0 0 24 24" fill="none" xmlns="http://www.w3.org/2000/svg">
<path d="M12 11C13.0609 11 14.0783 10.5786 14.8284 9.82843C15.5786 9.07828 16 8.06087 16 7C16 5.93913 15.5786 4.92172 14.8284 4.17157C14.0783 3.42143 13.0609 3 12 3C10.9391 3 9.92172 3.42143 9.17157 4.17157C8.42143 4.92172 8 5.93913 8 7C8 8.06087 8.42143 9.07828 9.17157 9.82843C9.92172 10.5786 10.9391 11 12 11ZM12 13C10.4473 12.9988 8.91581 13.3598 7.52707 14.0541C6.13833 14.7485 4.93066 15.7572 4 17C4.93066 18.2428 6.13833 19.2515 7.52707 19.9459C8.91581 20.6402 10.4473 21.0012 12 21C13.5527 21.0012 15.0842 20.6402 16.4729 19.9459C17.8617 19.2515 19.0693 18.2428 20 17C19.0693 15.7572 17.8617 14.7485 16.4729 14.0541C15.0842 13.3598 13.5527 12.9988 12 13Z" fill="black"/>
</svg>
