<svg width="21" height="22" viewBox="0 0 21 22" fill="none" xmlns="http://www.w3.org/2000/svg">
<path d="M9.625 18.6562C4.9175 18.6562 1.09375 14.8325 1.09375 10.125C1.09375 5.4175 4.9175 1.59375 9.625 1.59375C14.3325 1.59375 18.1562 5.4175 18.1562 10.125C18.1562 14.8325 14.3325 18.6562 9.625 18.6562ZM9.625 2.90625C5.64375 2.90625 2.40625 6.14375 2.40625 10.125C2.40625 14.1062 5.64375 17.3438 9.625 17.3438C13.6062 17.3438 16.8438 14.1062 16.8438 10.125C16.8438 6.14375 13.6062 2.90625 9.625 2.90625Z" fill="#A7A7A7"/>
<path d="M17.64 20.4412C17.57 20.4412 17.5 20.4325 17.4387 20.4237C17.0275 20.3713 16.2837 20.0912 15.8637 18.84C15.645 18.1838 15.7237 17.5275 16.0825 17.0288C16.4412 16.53 17.045 16.25 17.7362 16.25C18.6287 16.25 19.3287 16.5913 19.6437 17.195C19.9587 17.7988 19.8712 18.5687 19.3725 19.3125C18.7512 20.2487 18.0775 20.4412 17.64 20.4412ZM17.115 18.4288C17.2637 18.8837 17.4737 19.1112 17.6137 19.1287C17.7537 19.1463 18.0162 18.98 18.2875 18.5863C18.5412 18.21 18.5587 17.9387 18.4975 17.8162C18.4362 17.6938 18.1912 17.5625 17.7362 17.5625C17.465 17.5625 17.2637 17.65 17.15 17.7987C17.045 17.9475 17.0275 18.175 17.115 18.4288Z" fill="#A7A7A7"/>
</svg>
